PathFileType	4	(X/Y/Z)	D:\TRACE\spotREDO_2-26-24\spot_justArm_Motion_1_5-v60.trc
DataRate	CameraRate	NumFrames	NumMarkers	Units	OrigDataRate	OrigDataStartFrame	OrigNumFrames
100.00	100.00	      31	9	mm	100.00	3501	      7000
Frame#	Time	front left toe			Front right toe			aft left toe			aft right toe			Arm			FL body			FR body			AL Body			AR Body			
		X1	Y1	Z1	X2	Y2	Z2	X3	Y3	Z3	X4	Y4	Z4	X5	Y5	Z5	X6	Y6	Z6	X7	Y7	Z7	X8	Y8	Z8	X9	Y9	Z9	

3501	35.000	-221.46790	14.66437	-166.68950	206.33258	10.64316	-142.92604	-244.21866	40.71307	455.13327	173.52449	38.46541	414.33969	-7.05037	679.79822	-807.75507	-45.17915	536.03656	-225.11566	110.39416	542.10059	-220.02737	-84.37337	581.84766	657.07001	64.71995	583.09888	663.71326	
3502	35.010	-222.29324	14.89178	-166.39815	205.50052	10.55775	-142.95512	-245.03261	40.47395	455.27243	172.87457	38.59031	414.48737	-7.66634	679.52972	-807.70959	-45.58546	535.93280	-225.11024	109.92461	541.93970	-220.01253	-85.35910	581.65417	657.05304	63.23493	583.10028	663.64948	
3503	35.020	-223.04852	14.88049	-166.77751	204.58510	10.62295	-143.02946	-245.89220	40.43510	455.05020	171.51088	38.48515	414.52106	-8.56422	679.18787	-807.72638	-46.23772	535.97217	-225.38905	109.41473	541.90057	-220.04448	-86.29770	582.04645	657.33905	61.98951	583.11206	663.61957	
3504	35.030	-224.15089	14.92090	-166.75746	203.78152	10.91673	-142.72844	-247.08257	40.30478	455.19254	170.83865	38.38342	414.38095	-9.71556	679.05634	-807.69897	-46.83753	536.04559	-225.49963	108.81919	541.58612	-219.72346	-87.71696	581.91595	656.83063	60.86759	582.99030	663.66455	
3505	35.040	-225.14381	15.06052	-166.73662	202.90161	11.03890	-142.39874	-247.94794	40.25960	455.13486	169.87332	38.29554	414.59241	-11.11396	678.67841	-807.58295	-47.52771	536.18768	-225.61801	108.33315	541.59662	-219.68254	-88.33720	581.92957	657.03894	60.00900	582.75830	663.60291	
3506	35.050	-225.78996	15.02134	-166.56602	201.62296	10.75037	-142.69427	-248.85797	40.31953	455.06201	168.77048	38.25876	414.78796	-12.93141	677.80145	-807.39923	-48.22104	536.27167	-225.57990	107.45646	541.73462	-219.76938	-88.83974	581.82086	657.06659	59.27539	582.66425	663.66437	
3507	35.060	-226.98453	15.24669	-166.51451	200.92805	10.55170	-142.97414	-249.78511	40.26965	455.31192	168.03104	38.06409	414.56754	-14.67919	676.89807	-807.43494	-49.23600	536.22845	-225.42122	106.52435	541.92535	-220.22295	-90.15722	581.75287	656.62311	58.35178	582.69794	663.57196	
3508	35.070	-227.78639	15.07473	-166.36145	200.12242	10.90858	-142.74541	-250.64220	40.22172	455.25769	167.01753	37.99672	414.63998	-16.66095	676.14764	-807.43555	-50.10340	536.13531	-225.35855	105.62921	541.89227	-220.13722	-90.39944	581.90643	657.00909	57.64261	582.84027	663.51459	
3509	35.080	-228.97406	15.10471	-166.38683	198.65970	10.71156	-142.97153	-251.61424	40.09561	455.26077	166.09285	37.92353	414.66693	-18.43280	675.04810	-807.38983	-51.31121	536.04645	-225.47121	104.52210	541.90564	-220.01497	-90.75743	581.91077	657.05719	57.11431	583.04565	663.53906	
3510	35.090	-230.18103	15.15681	-166.30650	197.85245	11.27589	-142.79402	-252.38437	40.01382	455.40253	165.36250	37.74459	414.71051	-20.27108	674.29468	-807.25177	-52.58904	535.97296	-225.40627	103.13863	541.62482	-220.09021	-91.55523	581.84528	656.79797	56.73617	583.09790	663.50879	
3511	35.100	-231.07814	15.13390	-166.02150	197.02269	11.54635	-142.38791	-253.28239	40.03407	455.38785	164.23987	37.53575	414.74789	-22.04519	673.68542	-807.27496	-53.72860	535.74731	-225.35052	101.94333	541.63507	-220.39827	-91.77689	581.96985	657.07849	56.08288	583.16852	663.23114	
3512	35.110	-232.15295	14.90092	-165.91011	195.99501	11.40294	-142.53523	-254.12938	39.89096	455.44592	163.50824	37.34730	414.71188	-23.58678	673.12238	-807.24481	-55.26519	535.75232	-225.38219	100.49726	541.49390	-220.66408	-92.59188	581.71729	657.03516	55.77325	583.12341	663.18652	
3513	35.120	-233.23344	14.79906	-165.67816	194.69678	11.23565	-142.75037	-254.90060	39.72072	455.68896	162.62524	37.24088	414.69244	-24.80747	672.65875	-807.15381	-56.66397	535.26056	-225.35939	98.97643	541.20178	-220.79126	-93.18019	581.64075	657.00745	54.98656	582.93982	662.92126	
3514	35.130	-234.39276	14.78799	-165.72438	193.52328	11.14964	-142.95975	-256.08948	39.76234	455.57748	161.53630	37.10315	414.64975	-26.11511	672.51624	-807.17603	-58.17861	535.17749	-225.42224	97.67600	540.94037	-220.99950	-93.81103	581.66083	656.77979	54.44411	582.81781	662.75995	
3515	35.140	-235.31042	14.65740	-165.47260	192.69571	11.41557	-142.80904	-256.76773	39.61095	455.77090	160.55713	37.03270	414.57986	-27.08775	672.29999	-807.32245	-59.63554	535.03979	-225.41541	96.23930	540.86865	-221.12531	-94.02982	581.60443	657.11450	53.92606	582.82813	662.56177	
3516	35.150	-236.65109	14.69610	-165.58804	191.51796	11.20038	-143.19348	-257.93423	39.55056	455.88602	159.64482	37.02054	414.53165	-27.52875	672.08508	-807.22296	-60.96258	534.68689	-225.24991	94.74457	540.58411	-221.23676	-94.99615	581.64081	657.17737	53.41467	582.86035	662.72034	
3517	35.160	-237.57864	14.86779	-165.67915	190.60266	11.60941	-142.95470	-258.83130	39.36613	456.12674	158.47691	36.94582	414.52408	-27.98027	672.03632	-807.34399	-62.49647	534.71881	-225.43904	93.08431	540.58655	-221.34254	-95.83547	581.58691	656.92810	52.59506	582.84320	662.64471	
3518	35.170	-238.43382	14.85000	-165.30014	189.70387	11.54245	-142.90399	-259.59146	39.07603	456.10916	157.75404	36.57216	414.45456	-28.28781	672.02985	-807.60791	-64.01688	534.41187	-225.31003	92.05373	540.45947	-221.21906	-96.35184	581.40826	657.13452	51.66827	582.82007	662.64655	
3519	35.180	-239.51811	14.81589	-165.35593	188.48277	11.69952	-142.75192	-260.83475	39.22150	456.01538	156.77055	36.44963	414.57285	-28.34741	672.24310	-807.78949	-65.05743	534.35785	-225.15900	90.57030	540.26337	-221.10094	-97.31754	581.53009	657.27032	50.52354	582.86456	662.71228	
3520	35.190	-240.46777	14.87354	-165.22768	187.54259	11.64018	-142.80127	-261.86478	39.05864	456.03918	155.65210	36.20919	414.71509	-28.34633	672.41193	-807.85168	-66.17964	534.37848	-225.22049	89.41258	540.38391	-221.40501	-98.70955	581.27924	657.04224	49.58892	582.82947	663.10504	
3521	35.200	-241.32300	14.84513	-165.13776	186.69853	11.63482	-142.68575	-262.66180	38.79406	456.02490	154.80896	36.18972	414.72806	-28.13925	672.63654	-807.79584	-67.43861	534.45581	-225.28156	88.26757	540.50092	-221.30522	-99.74433	581.28131	657.38812	48.08905	582.65985	662.74640	
3522	35.210	-242.46805	15.10488	-165.15744	185.59465	11.79969	-142.59705	-263.79248	38.45814	455.97430	153.60237	36.15896	414.78790	-27.89487	672.84918	-807.65155	-68.75121	534.33740	-225.18146	87.06917	540.65405	-221.25893	-101.21313	581.14941	657.43683	46.85032	582.70428	662.81946	
3523	35.220	-243.33809	15.21063	-165.30585	184.79973	12.02325	-142.51297	-264.86719	38.23875	456.05612	152.74706	35.94352	414.83932	-27.54341	673.06683	-807.49896	-69.54501	534.35248	-225.21693	86.26883	540.52704	-221.02242	-102.79369	580.93280	657.19910	45.16295	582.65192	662.85938	
3524	35.230	-244.18974	15.28602	-165.23206	183.81755	11.98601	-142.48953	-265.94827	37.94462	456.05106	151.67220	35.79042	414.89542	-27.53024	673.20459	-807.54443	-70.52834	534.36096	-225.29416	85.13877	540.65222	-221.04099	-104.54393	580.96558	656.90802	43.43198	582.60950	662.84601	
3525	35.240	-245.12401	15.36574	-165.18036	182.96555	11.97131	-142.26642	-266.72021	37.75914	456.30658	150.60359	35.75911	415.00485	-27.44321	673.22601	-807.54871	-71.18395	534.27649	-225.28180	84.46375	540.54736	-220.88699	-105.62203	580.94922	657.16827	41.91757	582.52136	662.94446	
3526	35.250	-245.85771	15.45589	-165.06525	181.99559	12.06413	-141.95602	-268.07123	37.69614	456.14374	149.55893	35.66711	415.05563	-27.57018	673.47388	-807.52319	-72.21745	534.18939	-225.35793	83.43645	540.51337	-220.88823	-107.29708	581.01111	656.98657	40.49753	582.55927	663.04865	
3527	35.260	-246.65292	15.50926	-164.98474	181.17485	11.90770	-142.01860	-268.95401	37.38255	456.27542	148.71617	35.54914	415.09839	-27.80747	673.71124	-807.53381	-73.12068	534.14630	-225.43109	82.65806	540.40570	-220.80534	-109.36930	580.19238	656.07788	38.66573	582.71143	663.11823	
3528	35.270	-247.64949	15.70500	-165.04958	180.09160	12.02671	-142.12509	-269.92325	37.08855	456.21463	147.61493	35.55280	415.26614	-28.19664	673.83252	-807.52216	-74.05407	534.16107	-225.57596	81.87518	540.38062	-220.64307	-110.60905	580.24438	656.44531	37.08165	582.77069	663.11877	
3529	35.280	-248.66075	15.96794	-165.17490	179.46362	12.51937	-141.72646	-270.89063	36.66548	456.32562	146.67499	35.41369	415.41653	-28.99767	674.03601	-807.66998	-74.53177	533.90192	-225.36917	81.03001	540.32550	-220.50920	-112.16043	580.18042	656.31531	35.68594	582.71881	663.26880	
3530	35.290	-249.46667	15.84406	-165.23288	178.35156	11.70320	-141.76077	-271.93924	36.45026	456.47678	145.79216	35.04924	415.34125	-30.01443	674.09515	-807.63879	-75.46460	533.84955	-225.39052	80.18369	540.37341	-220.47609	-113.68958	580.03491	656.16241	34.20614	582.62091	663.32587	
3531	35.300	-250.39055	15.88710	-165.12589	177.52855	12.43086	-141.35017	-272.91031	36.19991	456.47806	144.98607	34.84400	415.41861	-30.73777	674.05560	-807.64319	-76.54218	533.86426	-225.42773	79.09447	540.43280	-220.51773	-115.00531	580.04352	656.13574	32.65041	582.57660	663.40448	
